<?xml version="1.0" encoding="utf-8"?>
<!-- Generator: Adobe Illustrator 22.1.0, SVG Export Plug-In . SVG Version: 6.00 Build 0)  -->
<svg version="1.1" id="Layer_1" xmlns="http://www.w3.org/2000/svg" xmlns:xlink="http://www.w3.org/1999/xlink" x="0px" y="0px"
	 viewBox="0 0 142 284" style="enable-background:new 0 0 142 284;" xml:space="preserve">
<style type="text/css">
	.st0{fill:#2C2C2C;stroke:#000000;stroke-width:0.5;stroke-miterlimit:10;}
	.st1{fill:#9BBEDD;stroke:#000000;stroke-width:0.5;stroke-linecap:round;stroke-linejoin:round;stroke-miterlimit:10;}
	.st2{fill:#F9C89C;}
	.st3{fill:#020202;}
	.st4{fill:#F9C89C;stroke:#020202;stroke-width:0.5;stroke-linecap:round;stroke-linejoin:round;stroke-miterlimit:10;}
	.st5{fill:#576A2B;stroke:#000000;stroke-width:0.5;stroke-linecap:round;stroke-linejoin:round;stroke-miterlimit:10;}
	.st6{fill:#7F5729;}
	.st7{fill:#D9B793;}
	.st8{fill:none;stroke:#000000;stroke-width:0.5;stroke-linecap:round;stroke-linejoin:round;stroke-miterlimit:10;}
	.st9{fill:none;stroke:#000000;stroke-width:0.5;stroke-miterlimit:10;}
</style>
<g>
	<path class="st0" d="M81.6,253.2v9.4c0,0,16.7,4.1,25.7,3.4c0,0,2.2-0.8,0-2.1L92.7,252L81.6,253.2z"/>
	<path class="st0" d="M59.9,253v9.4c0,0-16.7,4.1-25.7,3.4c0,0-2.2-0.8,0-2.1l14.6-11.9L59.9,253z"/>
	<path class="st1" d="M67,162.4c0,0,4.3,1.2,8.2,0l6.1,91.4c0,0,7.5,2.5,14.1,0l-2.5-111.2H49.5l-2.9,110c0,0,5.7,3.3,13.7,1.4
		L67,162.4z"/>
	<g>
		<g>
			<path class="st2" d="M99.1,175.3c-0.3,0-0.6-0.1-0.8-0.2c-0.3-0.2-0.5-0.4-0.5-0.7c0-0.3,0.2-0.6,0.5-0.8l4.9-3
				c0.5-0.7,0.8-1.1,0.9-1.2c0,0,0.1,0,0.1,0c0,0,0,0,0.1,0c0.1,0,0.1,0.1,0.2,0.1c0.3,0.7,0.7,1.5,0.8,1.6c0,0.1,0.1,0.1,0,0.2
				c0,0.1,0,0.2-5.1,3.7C99.9,175.2,99.5,175.3,99.1,175.3L99.1,175.3z"/>
			<path class="st3" d="M104.3,169.6c0,0,0.7,1.5,0.8,1.6c0.1,0.1-3.4,2.5-5,3.5c-0.2,0.2-0.6,0.3-0.9,0.3c-0.2,0-0.5,0-0.7-0.1
				c-0.5-0.3-0.5-0.7,0-1.1l4.9-3C103.3,170.8,104.1,169.7,104.3,169.6 M104.3,169.1c-0.1,0-0.2,0-0.3,0.1c-0.1,0-0.2,0.1-1,1.2
				l-4.8,3c-0.4,0.2-0.6,0.6-0.6,1c0,0.4,0.3,0.7,0.7,0.9c0.3,0.1,0.6,0.2,0.9,0.2c0.4,0,0.9-0.1,1.2-0.3c5.2-3.5,5.2-3.6,5.2-3.9
				c0-0.1,0-0.3-0.1-0.4c0-0.1-0.4-0.9-0.7-1.5c-0.1-0.1-0.2-0.2-0.3-0.3C104.4,169.2,104.3,169.1,104.3,169.1L104.3,169.1z"/>
		</g>
		<g>
			<path class="st2" d="M99.5,177.1c-0.2,0-0.4,0-0.6-0.1c-0.4-0.1-0.6-0.4-0.7-0.7c0-0.3,0.1-0.5,0.3-0.7l4-3.4
				c0.2-0.1,0.3-0.3,0.4-0.4l1-1.9c0-0.1,0.1-0.1,0.2-0.1c0,0,0,0,0,0c0.1,0,0.2,0.1,0.2,0.2l0.7,2.2c0,0.1,0,0.2-0.1,0.2l-4.3,4.3
				C100.4,176.9,99.9,177.1,99.5,177.1L99.5,177.1z"/>
			<path class="st3" d="M104.1,170l0.7,2.2l-4.3,4.3c-0.2,0.2-0.6,0.4-1,0.4c-0.2,0-0.4,0-0.5-0.1h0c-0.5-0.2-0.7-0.6-0.3-1l4-3.4
				c0.2-0.2,0.3-0.3,0.4-0.5L104.1,170 M104.1,169.5c-0.2,0-0.3,0.1-0.4,0.3l-1,1.9c-0.1,0.1-0.2,0.3-0.3,0.4l-4,3.4
				c-0.3,0.3-0.5,0.6-0.4,1c0.1,0.4,0.4,0.7,0.8,0.9c0.2,0.1,0.5,0.1,0.7,0.1c0.5,0,1.1-0.2,1.4-0.5l4.3-4.3
				c0.1-0.1,0.2-0.3,0.1-0.5l-0.7-2.2C104.5,169.6,104.3,169.5,104.1,169.5C104.1,169.5,104.1,169.5,104.1,169.5L104.1,169.5z"/>
		</g>
		<path class="st4" d="M95.4,94.3c-0.3,1.2,4.3,32.9,4.3,32.9l3.5,27.3l0.4,1.9l-0.3,2.8c0.2,0.5,0.1,1-0.3,1.5l-2.3,2.9
			c-0.1,0.1-0.2,0.3-0.2,0.4l-2.6,7.3c-0.1,0.3,0.2,0.6,0.6,0.6l0,0c0.8,0.1,1.6-0.2,1.8-0.6l2.2-3.6c0.1-0.1,0.4-0.1,0.5,0l0.5,4.7
			c0,0.3-0.1,0.7-0.4,1l-3.3,3.4c-0.5,0.5-0.3,1.1,0.5,1.4l0,0c0.3,0.1,0.7,0.1,0.9-0.1l4.5-3.2c0.4-0.2,0.6-0.5,0.8-0.8l2-3.1
			c0.1-0.1,0.1-0.2,0.1-0.3c0.2-1,1.2-6.2,1.3-6.2c0.1-0.1-0.2-8.2-0.2-8.2s-1-30.4-1.1-30.6c-0.2-0.3-3.9-34.1-3.9-34.1L95.4,94.3z
			"/>
	</g>
	<g>
		<g>
			<path class="st2" d="M42.9,175.3c-0.4,0-0.8-0.1-1.1-0.3c-5.1-3.5-5.1-3.6-5.1-3.7c0-0.1,0-0.1,0-0.2c0.1-0.1,0.4-0.9,0.8-1.6
				c0-0.1,0.1-0.1,0.2-0.1c0,0,0,0,0.1,0c0.1,0,0.1,0,0.1,0c0.1,0.1,0.4,0.5,1,1.3l4.8,3c0.3,0.2,0.5,0.5,0.5,0.8
				c0,0.3-0.2,0.5-0.5,0.7C43.4,175.3,43.2,175.3,42.9,175.3z"/>
			<path class="st3" d="M37.7,169.6c0.1,0.1,0.9,1.2,0.9,1.2l4.9,3c0.5,0.3,0.5,0.8,0,1.1c-0.2,0.1-0.4,0.1-0.7,0.1
				c-0.3,0-0.7-0.1-0.9-0.3c-1.6-1.1-5.1-3.5-5-3.5C37,171.2,37.7,169.6,37.7,169.6 M37.7,169.1c0,0-0.1,0-0.1,0
				c-0.1,0-0.3,0.1-0.3,0.3c-0.3,0.7-0.7,1.5-0.8,1.6c-0.1,0.1-0.1,0.2-0.1,0.4c0,0.3,0.1,0.3,5.2,3.9c0.3,0.2,0.7,0.3,1.2,0.3
				c0.3,0,0.6-0.1,0.9-0.2c0.4-0.2,0.7-0.5,0.7-0.9c0-0.4-0.2-0.8-0.6-1l-4.8-3c-0.8-1.1-0.9-1.2-1-1.2
				C37.9,169.2,37.8,169.1,37.7,169.1L37.7,169.1z"/>
		</g>
		<g>
			<path class="st2" d="M42.5,177.1c-0.5,0-0.9-0.2-1.2-0.4l-4.3-4.3c-0.1-0.1-0.1-0.2-0.1-0.2l0.7-2.2c0-0.1,0.1-0.2,0.2-0.2
				c0,0,0,0,0,0c0.1,0,0.2,0,0.2,0.1l1,1.9c0.1,0.2,0.2,0.3,0.4,0.4l4,3.4c0.2,0.2,0.4,0.5,0.3,0.7c-0.1,0.3-0.3,0.5-0.7,0.7
				C43,177,42.8,177.1,42.5,177.1z"/>
			<path class="st3" d="M37.9,170l1,1.9c0.1,0.2,0.2,0.4,0.4,0.5l4,3.4c0.4,0.3,0.3,0.8-0.3,1c-0.2,0.1-0.4,0.1-0.5,0.1
				c-0.4,0-0.8-0.1-1-0.4l-4.3-4.3L37.9,170 M37.9,169.5C37.9,169.5,37.9,169.5,37.9,169.5c-0.3,0-0.4,0.2-0.5,0.4l-0.7,2.2
				c-0.1,0.2,0,0.4,0.1,0.5l4.3,4.3c0.3,0.3,0.8,0.5,1.4,0.5c0.3,0,0.5,0,0.7-0.1c0.4-0.2,0.7-0.5,0.8-0.9c0.1-0.4-0.1-0.7-0.4-1
				l-4-3.4c-0.1-0.1-0.2-0.2-0.3-0.4l-1-1.9C38.3,169.6,38.1,169.5,37.9,169.5L37.9,169.5z"/>
		</g>
		<path class="st4" d="M37,91.5c0,0-3.7,33.8-3.9,34.1c-0.1,0.2-1.1,30.6-1.1,30.6s-0.3,8.1-0.2,8.2c0.1,0.1,1.1,5.3,1.3,6.2
			c0,0.1,0.1,0.2,0.1,0.3l2,3.1c0.2,0.3,0.5,0.6,0.8,0.8l4.5,3.2c0.2,0.2,0.6,0.2,0.9,0.1h0c0.8-0.3,1-0.9,0.5-1.4l-3.3-3.4
			c-0.3-0.3-0.4-0.6-0.4-1l0.5-4.7c0-0.2,0.4-0.2,0.5,0l2.2,3.6c0.3,0.5,1.1,0.7,1.8,0.6h0c0.5-0.1,0.8-0.4,0.6-0.6l-2.6-7.3
			c0-0.1-0.1-0.3-0.2-0.4l-2.3-2.9c-0.4-0.5-0.5-1-0.3-1.5l-0.3-2.8l0.4-1.9l3.5-27.3c0,0,4.6-31.8,4.3-32.9L37,91.5z"/>
	</g>
	<path class="st5" d="M58.6,62.6c-12,0-19.6,12.1-24.9,34.6l13.9,2.9l1.8-8.6c0,0-3,36.4-3.2,42.7c-0.2,6.3-3,18,24.8,18
		c20.8,0,25.7-3,24.9-21.2c0-15.9-3.4-39.5-3.4-39.5l2.2,6.9l14.3-3.3c0,0-8.6-32.5-24.6-32.5"/>
	<polygon class="st6" points="92.8,94.2 49,94.2 48.6,100.2 93.5,100.2 	"/>
	<polygon class="st7" points="93.5,99.9 48.6,99.9 48.1,105.9 94.3,105.9 	"/>
	<path class="st8" d="M58.6,62.6c-12,0-19.6,12.1-24.9,34.6l13.9,2.9l1.8-8.6c0,0-3,36.4-3.2,42.7c-0.2,6.3-3,18,24.8,18
		c20.8,0,25.7-3,24.9-21.2c0-15.9-3.4-39.5-3.4-39.5l2.2,6.9l14.3-3.3c0,0-8.6-32.5-24.6-32.5"/>
	<line class="st9" x1="49" y1="94.2" x2="92.7" y2="94.2"/>
	<line class="st9" x1="48.6" y1="99.9" x2="93.5" y2="99.9"/>
	<line class="st9" x1="48.1" y1="105.9" x2="94.3" y2="105.9"/>
	<path class="st5" d="M61.2,58.3c0,0-2.3,1.1-2.8,3.3c-0.6,2.3-2.8,13.1-2.8,13.1s14.6-9.8,30.7,0l-2.6-12.8c0,0-1-3.3-2.7-3.6H61.2
		z"/>
	<polygon class="st4" points="70.9,75.9 81.2,62.6 80.3,54.2 61.9,54.2 61.2,62.9 	"/>
</g>
</svg>
