<?xml version="1.0" encoding="utf-8"?>
<!-- Generator: Adobe Illustrator 22.1.0, SVG Export Plug-In . SVG Version: 6.00 Build 0)  -->
<svg version="1.1" id="Layer_1" xmlns="http://www.w3.org/2000/svg" xmlns:xlink="http://www.w3.org/1999/xlink" x="0px" y="0px"
	 viewBox="0 0 50 50" style="enable-background:new 0 0 50 50;" xml:space="preserve">
<style type="text/css">
	.st0{fill:#FFFFFF;}
	.st1{fill:none;stroke:#020202;stroke-width:0.5;stroke-linecap:round;stroke-miterlimit:10;}
	.st2{fill:#020202;}
	.st3{fill:#D3CABB;stroke:#020202;stroke-width:0.5;stroke-miterlimit:10;}
	.st4{fill:none;stroke:#020202;stroke-width:0.5;stroke-miterlimit:10;}
</style>
<g>
	<path class="st0" d="M24.1,21.2c0,0,0.5,1.5,0,3.3c0,0-6.8,2.8-13.5,0.1c0,0-0.7-2.3,0-3.4C10.6,21.2,16.8,18.2,24.1,21.2z"/>
	<path class="st0" d="M26.9,21c0,0,8-2.4,13.3-0.1c0,0,0.6,1.3,0.1,3.6c0,0-5.4,2.2-13.6-0.1C26.7,24.4,26.3,21.8,26.9,21z"/>
	<path class="st1" d="M23,27.2c1-1.3,1.6-2.9,1.5-4.7c-0.1-2.2-1.2-4.2-2.9-5.4"/>
	<path class="st1" d="M13.4,17c-1.9,1.3-3.1,3.6-3,6.1c0.1,1.8,0.8,3.3,1.9,4.5"/>
	<g id="TZQ65e_12_">
		<g>
			<path class="st2" d="M17.7,23c0.1,0,0.1-0.1,0.2-0.1c0.1-0.1,0.1-0.2,0-0.3c0,0,0,0,0,0c0,0,0-0.1,0-0.1c0,0,0,0,0,0
				c0-0.1,0-0.1,0-0.2c-0.1-0.1-0.1-0.1-0.2-0.1c-0.1,0-0.1,0-0.1-0.1c0-0.1-0.1-0.2-0.3-0.1c0,0-0.1,0-0.1,0.1c0,0,0,0,0,0
				c-0.1,0-0.1,0-0.2,0c0,0-0.1,0-0.1,0c-0.1,0-0.2,0.1-0.3,0.2c0,0,0,0,0,0c-0.1,0-0.1,0-0.2,0.1c-0.1,0.1-0.1,0.2,0,0.3
				c0,0,0,0,0,0.1c-0.1,0.1,0,0.2,0.1,0.3c0,0,0.1,0,0.1,0c0,0,0,0,0,0c0,0.1,0.1,0.1,0.1,0.2c0,0,0,0,0,0c0.1,0.1,0.2,0.1,0.3,0.1
				c0,0,0,0,0,0c0.1,0.1,0.1,0.1,0.3,0.1c0.1,0,0.2-0.1,0.2-0.1C17.8,23.1,17.7,23,17.7,23C17.7,23,17.7,23,17.7,23z"/>
		</g>
	</g>
	<path class="st1" d="M21.4,31.6c0,0-4.8,4-9.1,0.4"/>
	<path class="st1" d="M29.3,28.4c-1.8-1.4-2.8-3.5-2.7-5.9c0.1-2.2,1.2-4.2,2.9-5.4"/>
	<path class="st1" d="M37.7,17c1.9,1.3,3.1,3.6,3,6.1c-0.1,1.8-0.9,3.5-2.1,4.7"/>
	<g id="TZQ65e_11_">
		<g>
			<path class="st2" d="M33.3,22.3c0-0.1,0-0.1,0.1-0.2c0.1-0.1,0.1-0.1,0.2-0.1c0,0,0,0,0,0c0,0,0.1,0,0.1,0c0,0,0,0,0-0.1
				c0.1-0.1,0.1-0.1,0.2,0c0.1,0,0.1,0.1,0.2,0.2c0,0,0.1,0.1,0.1,0.1c0.1,0,0.2,0.1,0.2,0.2c0,0,0,0.1,0,0.1c0,0,0,0,0,0
				c0,0.1,0,0.1,0,0.2c0,0,0,0.1,0,0.1c0,0.1,0,0.2-0.1,0.3c0,0,0,0,0,0c0,0.1,0,0.1,0,0.2c0,0.1-0.2,0.1-0.3,0.1c0,0,0,0-0.1,0
				c-0.1,0.1-0.2,0-0.3-0.1c0,0,0-0.1-0.1-0.1c0,0,0,0,0,0c-0.1,0-0.1,0-0.2-0.1c0,0,0,0,0,0c-0.1,0-0.2-0.1-0.2-0.2c0,0,0,0,0,0
				c-0.1,0-0.2-0.1-0.2-0.2c0-0.1,0-0.2,0.1-0.2C33.2,22.3,33.2,22.3,33.3,22.3C33.3,22.3,33.3,22.3,33.3,22.3z"/>
		</g>
	</g>
	<path class="st1" d="M30.1,32c1.7,1.4,3.5,2.6,8.6-1.5"/>
	<path class="st3" d="M17.2,29.9"/>
	<path class="st4" d="M26.7,24.5c0,0,7.9,2.4,13.7,0"/>
	<path class="st4" d="M24.3,24.5c0,0-7.1,2.6-13.7,0.2"/>
	<path class="st4" d="M26.8,20.9c0,0,7.5-2.2,13.5-0.2"/>
	<path class="st4" d="M24.3,21.1c0,0-7.4-2.8-13.7,0"/>
</g>
</svg>
