<?xml version="1.0" encoding="utf-8"?>
<!-- Generator: Adobe Illustrator 22.1.0, SVG Export Plug-In . SVG Version: 6.00 Build 0)  -->
<svg version="1.1" id="Layer_1" xmlns="http://www.w3.org/2000/svg" xmlns:xlink="http://www.w3.org/1999/xlink" x="0px" y="0px"
	 viewBox="0 0 75 100" style="enable-background:new 0 0 75 100;" xml:space="preserve">
<style type="text/css">
	.st0{fill:#ABD3E9;stroke:#020202;stroke-width:0.5;stroke-linecap:round;stroke-linejoin:round;stroke-miterlimit:10;}
</style>
<path class="st0" d="M25.3,88.3l-3.1,1.2v-5.2L14.9,85c0,0,1.7-6.4,1.7-8.1c0,0-7.3-1.6-10.4-3c0,0,9.3-2.5,10.2-5.5
	C16.4,66.8,3.8,56.9,3.8,56.9s8.3,0.3,11.6-3.3c-6.8-11.1-8.8-14-13.3-17c0,0,12.1,2.9,19.2,2.3c0,0-4-11-2.6-21.6
	c4.3,4.2,12.5,10.3,14.9,13.9c1.2-5.4,10.8-12.4,12.1-17.8c0,0,1.1,19.7,2.5,22l17.7-6.1l-6.2,19.4c3.1,0.3,10.7,3.6,13,4.8
	c0,0-10.4,5.5-11.5,6.6l8.4,7l-8.9,4.9c0,0,2.1,6.6,3.5,8.2c-1,0-8.3-0.6-8.9,0.6l1.6,6l-5.6-0.4l-0.5-0.1c3.5-4.9,4.2-12.5,4.2-21
	c0-19-6.8-25.2-18.2-25.2c-11.1,0-16.9,9.1-16.9,26.4c0,10.2,2.2,17.1,6.4,21.2L25.3,88.3z"/>
</svg>
