<?xml version="1.0" encoding="utf-8"?>
<!-- Generator: Adobe Illustrator 22.1.0, SVG Export Plug-In . SVG Version: 6.00 Build 0)  -->
<svg version="1.1" id="Layer_1" xmlns="http://www.w3.org/2000/svg" xmlns:xlink="http://www.w3.org/1999/xlink" x="0px" y="0px"
	 viewBox="0 0 50 50" style="enable-background:new 0 0 50 50;" xml:space="preserve">
<style type="text/css">
	.st0{fill:none;stroke:#020202;stroke-width:0.5;stroke-linecap:round;stroke-miterlimit:10;}
	.st1{fill:#020202;}
	.st2{fill:#C9E9BA;stroke:#020202;stroke-width:0.5;stroke-miterlimit:10;}
	.st3{fill:#C9E9BA;stroke:#020202;stroke-width:0.5721;stroke-miterlimit:10;}
</style>
<g>
	<g>
		<path class="st0" d="M12.5,24.2c0,0,8.4-4.9,20.2-0.8"/>
		<g>
			<g>
				<path class="st1" d="M10.9,21.8c-0.9,0.5-1.4,1.4-1.3,2.5c0.1,1.3,1.1,2.3,2.3,2.8c0.3,0.1,0.5-0.3,0.3-0.4
					c-1.7-0.8-3.1-3.3-0.9-4.4C11.5,22.1,11.2,21.7,10.9,21.8L10.9,21.8z"/>
			</g>
		</g>
		<g>
			<g>
				<path class="st1" d="M34,21.4c1.7,0.7,0.8,4.9-1.2,4.4c-0.3-0.1-0.4,0.4-0.1,0.5c2.6,0.7,3.8-4.3,1.6-5.3
					C34,20.8,33.7,21.2,34,21.4L34,21.4z"/>
			</g>
		</g>
	</g>
	<path class="st2" d="M17.5,22.5c2.6,5.4,3.1,1.5,3.9,6.6c0.4,1.5,1,1.8,1.9,1.9c0.9,0.1,1.6-0.8,1.9-5.1c0.1-2,2,1.6,2.1-3.7
		C27.3,22.2,22.3,21.4,17.5,22.5z"/>
	<ellipse transform="matrix(0.2389 -0.971 0.971 0.2389 -10.3425 49.571)" class="st2" cx="26.5" cy="31.4" rx="1" ry="0.8"/>
	<ellipse transform="matrix(0.8432 -0.5376 0.5376 0.8432 -12.2728 14.7926)" class="st3" cx="19.2" cy="28.4" rx="0.8" ry="1.2"/>
</g>
</svg>
